<svg width="1440" height="65" viewBox="0 0 1440 65" fill="none" xmlns="http://www.w3.org/2000/svg">
<path d="M1440 0H-2C5.9282 28.9616 25.249 75.2176 64.8474 54.0546C120.886 24.1053 200.136 28.9161 234.201 44.8324C268.267 60.7488 308.845 63.4853 348.329 44.8324C393.02 23.7189 453.935 -4.77711 555.162 44.8324C601.681 67.6306 632.259 57.6682 667.714 46.1171C709.41 32.5326 757.85 16.7509 846.892 49.4734C927.59 79.1293 957.49 60.3408 986.036 42.4031C1015.77 23.7182 1082.43 28.576 1126.72 44.8324C1162.73 54.0545 1201.94 77.563 1257.92 46.4286C1275.2 36.824 1292.22 15.0963 1316.02 15.0963C1342.75 13.2621 1366.03 21.6953 1385.03 28.576C1415.7 39.6862 1435.19 46.7483 1440 0Z" fill="#DAFFF1"/>
</svg>
