<svg width="1440" height="151" viewBox="0 0 1440 151" fill="none" xmlns="http://www.w3.org/2000/svg">
<path d="M1445.38 0.424438H-36.1814C-28.0357 59.8965 -8.18483 154.882 32.5 111.424C90.0758 49.9242 171.5 59.8029 206.5 92.4868C241.5 125.171 283.192 130.79 323.758 92.4868C369.676 49.1306 432.262 -9.38525 536.266 92.4868C584.061 139.302 615.479 118.845 651.906 95.1248C694.746 67.2294 744.515 34.8221 836 102.017C918.912 162.915 949.632 124.333 978.961 87.4981C1009.51 49.1292 1038.55 12.656 1123.5 92.4868C1227.11 189.859 1243.21 147.04 1261.67 97.9128C1272.87 68.0965 1284.95 35.9567 1318 31.4244C1345.46 27.6578 1369.38 44.9753 1388.9 59.1046C1420.41 81.9192 1440.44 96.4211 1445.38 0.424438Z" fill="#FFF9F9" fill-opacity="0.5"/>
</svg>
