<svg width="1440" height="119" viewBox="0 0 1440 119" fill="none" xmlns="http://www.w3.org/2000/svg">
<path d="M1445 0H-36C-27.8574 53.0221 -8.01403 137.706 32.6554 98.9614C90.2094 44.1313 171.603 52.9386 206.59 82.0778C241.576 111.217 283.252 116.227 323.803 82.0778C369.704 43.4238 432.266 -8.74578 536.231 82.0778C584.008 123.816 615.413 105.577 651.827 84.4297C694.651 59.5597 744.4 30.6671 835.851 90.5744C918.732 144.868 949.44 110.47 978.758 77.6302C1009.3 43.4226 1077.76 52.3161 1123.24 82.0778C1160.23 98.9614 1200.5 142 1258 85C1277 63.5 1284.63 31.6787 1317.67 27.6379C1345.12 24.2798 1369.03 39.7192 1388.54 52.3161C1420.04 72.6563 1440.06 85.5854 1445 0Z" fill="#FFF9F9" fill-opacity="1"/>
</svg>
